<?xml version="1.0" encoding="utf-8"?>
<!-- Generator: Adobe Illustrator 16.0.0, SVG Export Plug-In . SVG Version: 6.00 Build 0)  -->
<!DOCTYPE svg PUBLIC "-//W3C//DTD SVG 1.1//EN" "http://www.w3.org/Graphics/SVG/1.1/DTD/svg11.dtd">
<svg version="1.1" id="objects" xmlns="http://www.w3.org/2000/svg" xmlns:xlink="http://www.w3.org/1999/xlink" x="0px" y="0px"
	 width="792px" height="553px" viewBox="0 0 792 553" enable-background="new 0 0 792 553" xml:space="preserve">
<g>
	<g>
		<g>
			<path fill="#73EDFF" d="M396.101,532.512c-4.911,0-10.174-1.208-14.621-3.63c-47.189-25.681-184.746-115.417-184.746-191.914
				l-16.786-227.354c0-10.529,5.914-20.286,14.976-25.651c9.548-5.67,94.72-47.26,136.503-57.838
				c15.685-3.973,39.741-6.255,65.83-6.255c26.083,0,50.09,2.282,65.78,6.255c41.963,10.624,125.225,52.35,134.535,58.028
				c8.881,5.417,14.685,15.062,14.685,25.461l-16.791,227.354c0,76.497-137.553,166.233-184.742,191.914
				C406.274,531.304,401.008,532.512,396.101,532.512z M234.507,117.954l16.791,222.705c0,25.264,54.587,89.035,144.803,140.47
				c90.214-51.436,144.802-115.206,144.802-140.47l16.79-222.952c-29.381-20.925-84.899-40.173-108.077-46.042
				c-11.513-2.92-31.229-4.725-53.367-4.725c-22.128,0-40.087,1.805-51.604,4.725C321.287,77.58,263.888,96.969,234.507,117.954z"/>
		</g>
		<g>
			<polygon fill="#000078" points="136.051,148.971 103.373,193.443 127.403,317.694 46.66,335.954 67.807,245.347 13.98,172.04 			
				"/>
			<polygon fill="#000078" points="656.151,144.774 688.829,189.245 664.803,313.496 745.541,331.758 724.396,241.149 
				778.221,167.843 			"/>
		</g>
		<g>
			<g>
				<path fill="#000078" d="M637.44,372.643c-163.259-21.651-319.426-21.651-482.679,0c-9.847-62.184-19.699-124.364-29.545-186.546
					c182.805-24.797,358.968-24.797,541.768,0C657.135,248.279,647.283,310.459,637.44,372.643z"/>
			</g>
		</g>
		<g>
			<path fill="#FFFFFF" d="M259.29,199.629c8.518,0.254,15.774,2.99,21.769,8.208c5.995,5.218,8.992,11.475,8.992,18.77v51.411
				c0,7.635-3.313,14.125-9.938,19.47l9.938,24.56h-22.4l-6.783-17.307c-0.843,0.083-1.683,0.127-2.524,0.127h-10.727v17.18H226.32
				v-95.441v-26.978h31.865H259.29z M247.616,216.808v71.008h10.569c2.943,0,5.442-0.975,7.493-2.927
				c2.051-1.951,3.076-4.241,3.076-6.872v-51.411c0-2.714-1.025-5.026-3.076-6.935c-2.051-1.909-4.55-2.863-7.493-2.863H247.616z"/>
			<path fill="#73EDFF" d="M304.246,199.629h21.296v97.858c0,2.714,1.025,5.026,3.076,6.935s4.548,2.863,7.493,2.863
				c2.943,0,5.442-0.955,7.493-2.863s3.076-4.221,3.076-6.935v-97.858h21.296v97.858c0,7.464-3.103,13.827-9.307,19.088
				c-6.207,5.259-13.724,7.89-22.558,7.89s-16.354-2.63-22.558-7.89c-6.207-5.261-9.307-11.624-9.307-19.088V199.629z"/>
			<path fill="#73EDFF" d="M386.904,197.211l42.435,47.211v-44.793h21.296v122.418h-21.296v-48.484L408.2,249.894v72.153h-21.296
				V197.211z"/>
			<path fill="#73EDFF" d="M469.563,199.629h21.296v122.418h-21.296V199.629z"/>
			<path fill="#FFFFFF" d="M541.652,243.659c8.834,0,16.352,2.63,22.558,7.89c6.204,5.261,9.308,11.624,9.308,19.088v26.851
				c0,7.464-3.104,13.827-9.308,19.088c-6.206,5.259-13.724,7.89-22.558,7.89s-16.354-2.63-22.558-7.89
				c-6.207-5.261-9.308-11.624-9.308-19.088v-9.671h21.296v9.671c0,2.714,1.025,5.026,3.076,6.935s4.548,2.863,7.493,2.863
				c2.943,0,5.442-0.955,7.493-2.863s3.076-4.221,3.076-6.935v-26.851c0-2.714-1.025-5.027-3.076-6.936s-4.55-2.863-7.493-2.863
				c-8.834,0-16.354-2.628-22.558-7.89c-6.207-5.259-9.308-11.622-9.308-19.088v-9.671c0-7.464,3.101-13.827,9.308-19.088
				c6.203-5.259,13.724-7.89,22.558-7.89s16.352,2.63,22.558,7.89c6.204,5.261,9.308,11.624,9.308,19.088v9.671h-21.296v-9.671
				c0-2.714-1.025-5.027-3.076-6.936s-4.55-2.863-7.493-2.863c-2.945,0-5.442,0.955-7.493,2.863s-3.076,4.221-3.076,6.936v9.671
				c0,2.716,1.025,5.027,3.076,6.936S538.707,243.659,541.652,243.659z"/>
		</g>
		<g>
		</g>
	</g>
</g>
<g>
</g>
<g>
</g>
<g>
</g>
<g>
</g>
<g>
</g>
<g>
</g>
<g>
</g>
<g>
</g>
<g>
</g>
<g>
</g>
<g>
</g>
<g>
</g>
<g>
</g>
<g>
</g>
<g>
</g>
<g>
</g>
<g>
</g>
<g>
</g>
</svg>
